HIERARCHY
ROOT Hips
{
  OFFSET 0 0 0
  CHANNELS 6 Xposition Yposition Zposition Zrotation Yrotation Xrotation
  JOINT LeftThigh
  {
    OFFSET 8.409438 0 -5.917753
    CHANNELS 3 Zrotation Yrotation Xrotation
    JOINT LeftLeg
    {
      OFFSET 0 0 -42.358652
      CHANNELS 3 Zrotation Yrotation Xrotation
      JOINT LeftFoot
      {
        OFFSET 0 0 -39.357303
        CHANNELS 3 Zrotation Yrotation Xrotation
      }
    }
  }
  JOINT RightThigh
  {
    OFFSET -8.409438 0 -5.917753
    CHANNELS 3 Zrotation Yrotation Xrotation
    JOINT RightLeg
    {
      OFFSET 0 0 -42.358652
      CHANNELS 3 Zrotation Yrotation Xrotation
      JOINT RightFoot
      {
        OFFSET 0 0 -39.357303
        CHANNELS 3 Zrotation Yrotation Xrotation
      }
    }
  }
  JOINT SpineLow
  {
    OFFSET 0 0 4.719101
    CHANNELS 3 Zrotation Yrotation Xrotation
    JOINT SpineMid
    {
      OFFSET 0 0 12.899191
      CHANNELS 3 Zrotation Yrotation Xrotation
      JOINT Chest
      {
        OFFSET 0 0 12.899191
        CHANNELS 3 Zrotation Yrotation Xrotation
        JOINT LeftShoulder
        {
          OFFSET 7.550562 1.41573 9.438202
          CHANNELS 3 Zrotation Yrotation Xrotation
          JOINT LeftArm
          {
            OFFSET 9.155056 0 4.247191
            CHANNELS 3 Zrotation Yrotation Xrotation
            JOINT LeftForearm
            {
              OFFSET 0 0 25.771955
              CHANNELS 3 Zrotation Yrotation Xrotation
              JOINT LeftHand
              {
                OFFSET 0 0 25.197169
                CHANNELS 3 Zrotation Yrotation Xrotation
              }
            }
          }
        }
        JOINT RightShoulder
        {
          OFFSET -7.550562 1.41573 9.438202
          CHANNELS 3 Zrotation Yrotation Xrotation
          JOINT RightArm
          {
            OFFSET -9.155056 0 4.247191
            CHANNELS 3 Zrotation Yrotation Xrotation
            JOINT RightForearm
            {
              OFFSET 0 0 -25.771955
              CHANNELS 3 Zrotation Yrotation Xrotation
              JOINT RightHand
              {
                OFFSET 0 0 -25.197169
                CHANNELS 3 Zrotation Yrotation Xrotation
              }
            }
          }
        }
        JOINT Neck
        {
          OFFSET 0 0 15.101124
          CHANNELS 3 Zrotation Yrotation Xrotation
          JOINT Head
          {
            OFFSET 0 0 11.325843
            CHANNELS 3 Zrotation Yrotation Xrotation
            End Site
            {
              OFFSET 0 0 14.157303
            }
          }
        }
      }
    }
  }
}
MOTION
Frames: 18
Frame Time: 0.0
0.0  89.887642  0.0  1.373267  -6.328636  -91.685033  18.82996  -15.347893  -5.469387  3.015497  5.660237  27.82681  -0.329347  -0.117914  -0.012221  2.499811  15.072853  -8.533882  -1.910106  4.00066  18.048368  2.33339  -0.098736  0.446398  0.7189  -0.028577  -0.307283  1.96537  -0.068969  -0.840693  1.96537  -0.068969  -0.840693  -4.302624  14.861802  9.594747  128.914943  32.855688  -175.940337  1.643001  -11.95563  37.853319  85.244057  -9.8118  7.82117  -10.679184  -4.598361  13.699544  70.91293  24.225067  30.920488  -9.023372  4.529642  -45.330151  84.878445  1.516009  -3.620468  -0.839636  2.819186  8.407891  -0.668567  2.103317  6.308533  
0.0  89.887642  0.0  1.389539  -7.513284  -91.234094  19.810495  -15.618001  -6.60472  2.836301  6.536016  29.295792  -0.727207  -0.012031  -0.190089  2.470753  14.856033  -9.969142  -1.809157  4.176625  19.091799  2.51525  -0.085534  0.489942  0.908315  -0.004244  -0.390054  2.482781  0.00305  -1.066159  2.482781  0.00305  -1.066159  -4.249237  14.470524  9.600145  128.734313  32.79078  -175.859099  2.008956  -11.948887  37.679241  85.242677  -9.814278  7.907117  -10.781022  -4.66645  13.731511  70.623948  23.993131  30.741258  -9.135395  4.445339  -45.441038  84.494796  1.533817  -3.448757  -0.813462  2.762961  8.43371  -0.648282  2.061466  6.327748  
0.0  89.887642  0.0  1.457719  -8.852766  -90.881779  20.673446  -15.854459  -7.693411  2.474711  7.569033  30.9324  -0.440281  0.031146  -0.148921  2.772919  14.690008  -11.616791  -3.25497  4.65944  20.309098  3.215532  -0.031566  0.573004  1.137401  0.036489  -0.425086  3.108224  0.119698  -1.159919  3.108224  0.119698  -1.15992  -5.136161  13.894325  9.142352  129.494228  32.465032  -175.678817  2.215966  -11.991818  37.588566  85.362973  -9.993561  8.065131  -11.01937  -4.771703  13.615559  70.470808  23.706771  30.587287  -9.256714  4.41101  -45.640033  83.965637  1.540028  -3.193789  -0.807362  2.665547  8.293574  -0.641752  1.988644  6.222593  
0.0  89.887642  0.0  1.519344  -10.304563  -90.628639  21.286764  -16.105673  -8.719124  2.393846  8.597411  32.904254  0.006213  -0.087076  -0.147496  2.864759  14.735541  -13.580438  -3.131226  4.550561  22.093094  3.732585  0.026953  0.63745  1.390896  0.092016  -0.411082  3.800206  0.275049  -1.11794  3.800206  0.275049  -1.11794  -5.472645  13.327485  8.933435  129.691496  32.476326  -175.501672  2.366457  -12.065132  37.800764  85.375816  -9.961932  8.120686  -11.213104  -4.962947  13.444506  70.114821  23.535901  30.325495  -9.587342  4.363043  -45.960781  83.682999  1.564795  -3.064309  -0.847387  2.505506  7.973301  -0.668283  1.868457  5.982511  
0.0  89.887642  0.0  1.616306  -11.772187  -90.496633  21.524242  -16.320514  -9.643372  2.422487  9.513081  34.987196  0.358579  -0.153686  -0.072808  2.247601  14.836244  -15.526144  -1.943734  4.076298  23.78971  4.085223  0.105227  0.677358  1.6496  0.154676  -0.36467  4.50663  0.447419  -0.985724  4.50663  0.447419  -0.985724  -6.022654  12.713821  8.695766  130.213094  32.497055  -175.213705  2.370848  -12.09869  38.190917  85.469256  -10.075809  8.218536  -11.356744  -5.186893  13.261556  69.716225  23.390507  30.07805  -9.978158  4.284622  -46.394472  83.401867  1.582253  -2.948607  -0.896032  2.331345  7.576339  -0.700977  1.737723  5.684903  
0.0  89.887642  0.0  1.727763  -13.204284  -90.390972  21.388923  -16.483487  -10.516295  2.732959  10.397212  37.299832  0.423513  -0.317048  -0.142555  1.084903  14.840629  -17.439741  -0.454767  3.563957  25.339759  4.265788  0.164306  0.626227  1.8677  0.218026  -0.336281  5.102163  0.621489  -0.901756  5.102163  0.621489  -0.901756  -6.371401  12.105669  8.577796  130.819102  32.444747  -174.954729  2.199324  -12.101588  38.796324  85.407462  -10.046811  8.225807  -11.313748  -5.425754  13.28327  69.345198  23.305042  29.884529  -10.562751  4.081771  -46.951535  83.115192  1.582032  -2.919666  -0.801898  2.154924  7.256578  -0.627056  1.606944  5.444631  
0.0  89.887642  0.0  1.851985  -14.59968  -90.314892  20.962593  -16.628001  -11.254944  3.167735  11.246371  39.578127  0.259387  -0.492065  -0.271766  -0.035755  14.784841  -19.144987  2.550251  2.808505  27.015833  2.933411  -0.172276  0.323831  2.05543  0.280885  -0.308939  5.614866  0.793363  -0.819928  5.614866  0.793363  -0.819928  -6.650401  11.465562  8.478372  131.448018  32.311213  -174.740887  1.929957  -12.139592  39.652386  85.430105  -10.26214  8.340497  -11.133176  -5.716434  13.342358  69.055388  23.237551  29.793639  -11.280763  3.661747  -47.609249  82.809547  1.570792  -2.993655  -0.625198  1.99062  6.96724  -0.49163  1.486069  5.226948  
0.0  89.887642  0.0  1.977396  -15.996483  -90.260565  20.445713  -16.690214  -11.773618  3.412746  12.102921  41.512066  0.11513  -0.672008  -0.444566  -1.103581  14.770693  -20.784815  3.47273  2.441979  28.35265  3.293869  -0.124539  0.201637  2.222945  0.345926  -0.27202  6.072618  0.969611  -0.711087  6.072618  0.969611  -0.711087  -6.909444  10.806775  8.284354  132.059991  32.095756  -174.620726  1.435091  -12.189082  40.592168  85.355927  -10.229045  8.347182  -10.902957  -6.06054  13.372157  68.862457  23.18328  29.741478  -12.12601  2.993768  -48.360609  82.455494  1.559131  -3.086369  -0.372511  1.827608  6.678785  -0.299382  1.366829  5.009779  
0.0  89.887642  0.0  2.153731  -17.475206  -90.306689  20.302018  -16.637202  -12.097379  3.012492  12.879319  42.860724  0.158723  -0.756977  -0.551432  -2.007312  14.86023  -22.40742  4.122268  2.077339  29.827461  3.709376  -0.084152  0.088036  2.395891  0.414341  -0.210639  6.545871  1.152128  -0.53414  6.545872  1.152128  -0.53414  -7.228699  10.166672  7.960622  132.595062  31.847567  -174.587341  1.117383  -12.33082  41.775767  85.401521  -10.279756  8.426344  -10.78415  -6.422194  13.327433  68.804892  23.138633  29.735268  -12.987142  2.186093  -49.21691  82.249168  1.518496  -3.362099  -0.123005  1.680594  6.388463  -0.109835  1.259323  4.791342  
0.0  89.887642  0.0  2.439483  -19.014786  -90.487005  20.436289  -16.400489  -12.182681  2.087508  13.500908  43.453951  0.412194  -0.693836  -0.450319  -2.80899  15.206974  -24.133438  4.674173  1.49121  31.492288  3.986545  -0.076716  0.018458  2.55357  0.488225  -0.131029  6.978149  1.346626  -0.30622  6.978149  1.346626  -0.30622  -7.5084  9.574158  7.603051  133.125876  31.616509  -174.568847  0.640236  -12.485268  42.788291  85.422197  -10.154038  8.510759  -10.632417  -6.830128  13.196174  68.819383  23.075662  29.849267  -13.888195  1.371701  -50.17256  81.889184  1.471104  -3.481778  0.214858  1.574058  6.149709  0.145308  1.182848  4.611438  
0.0  89.887642  0.0  3.198696  -21.249423  -91.172293  21.207124  -15.809021  -11.653476  1.01542  14.027628  43.513166  0.812335  -0.435759  -0.125228  -2.701942  16.045925  -25.666178  5.006392  0.849305  33.303879  4.264335  -0.073754  -0.016299  2.86764  0.599805  0.03922  7.840849  1.632211  0.178125  7.840849  1.632211  0.178125  -8.244134  9.099999  6.996632  133.585912  31.402884  -174.570777  0.277956  -12.755177  43.768324  85.538805  -10.045789  8.738618  -10.808244  -7.203133  12.903278  71.433277  22.0247  30.995528  -17.123133  0.382579  -51.162285  81.404367  1.429529  -3.442522  0.354347  1.554569  5.850658  0.250885  1.169447  4.386825  
0.0  89.887642  0.0  3.922921  -22.776014  -91.618603  21.029759  -14.875947  -10.890098  0.244469  14.480771  43.151388  1.726007  -0.174591  0.308335  -3.263018  16.824121  -27.522599  5.1593  0.239375  35.249889  4.419188  -0.070346  -0.043153  2.949607  0.691459  0.118466  8.067815  1.87236  0.407622  8.067815  1.87236  0.407622  -8.184476  8.790947  6.673022  134.051745  31.198244  -174.597177  0.039237  -13.114547  44.674679  85.627024  -9.812047  8.94505  -10.5589  -7.402237  12.919403  71.479281  22.034201  30.998023  -17.815937  -0.062445  -52.271833  81.140205  1.360587  -3.586703  0.96935  1.629971  5.788257  0.711597  1.231793  4.338327  
0.0  89.887642  0.0  4.802679  -24.314015  -92.305312  20.856851  -13.775972  -9.833057  0.442555  14.618001  43.247403  2.402708  -0.196244  0.102697  -3.821773  17.627719  -29.262574  5.418067  -0.564619  37.382058  3.946653  0.103534  -0.230286  2.99396  0.782555  0.198762  8.192632  2.110661  0.639338  8.192632  2.110661  0.639338  -8.167918  8.555944  6.487804  134.7204  31.074427  -174.557056  -0.207399  -13.484271  45.481241  85.750405  -9.575838  9.22528  -10.262243  -7.44206  13.22107  71.490693  22.192147  30.813595  -18.390378  -0.38263  -53.472003  80.822949  1.216764  -3.661228  1.762945  1.719746  5.8606  1.305756  1.306869  4.390203  
0.0  89.887642  0.0  5.797064  -25.368441  -92.96836  20.235133  -12.847762  -9.177603  1.536398  14.472062  43.52412  2.671739  0.011743  0.088472  -4.446512  18.370242  -30.738495  5.212627  -0.510135  39.162201  4.233447  0.250523  -0.340784  2.969146  0.879487  0.265232  8.128611  2.367248  0.831956  8.128611  2.367248  0.831956  -8.088353  8.488161  6.479283  135.283614  31.15342  -174.563188  -0.466425  -13.876715  46.301551  85.794302  -9.304662  9.584483  -10.355819  -7.30486  13.568079  71.646399  22.304309  30.535643  -18.995953  -0.805619  -54.90043  80.497834  0.946278  -3.75095  2.521729  1.922367  5.950328  1.872606  1.46652  4.454484  
0.0  89.887642  0.0  6.815307  -25.715854  -93.47439  19.418918  -11.708739  -8.455734  2.59513  14.106562  43.120348  2.924513  0.115658  0.410275  -6.732952  18.11233  -32.300394  4.726125  0.51185  40.101024  6.690258  1.307907  -0.10421  2.828144  0.963786  0.284281  7.745342  2.596997  0.888897  7.745342  2.596997  0.888896  -8.100444  8.676439  6.637477  135.824873  31.342922  -174.747639  -0.903721  -14.268963  47.154243  85.707899  -9.024374  10.032748  -10.609197  -7.091177  14.041579  71.850572  22.362694  30.432889  -19.687715  -1.599937  -56.783413  80.093905  0.491576  -3.897458  3.305902  2.221767  6.124136  2.457135  1.69971  4.580664  
0.0  89.887642  0.0  7.759449  -25.212359  -93.685279  17.810807  -10.33015  -8.378276  3.888177  13.597463  43.191022  3.026178  0.032715  0.452382  -9.138077  18.389214  -33.900331  6.140386  0.553593  41.077391  7.24282  1.335706  -0.143673  2.544489  1.030283  0.246893  6.969359  2.786583  0.78279  6.96936  2.786584  0.782791  -8.116499  9.11667  6.76655  136.157583  31.549748  -175.27167  -1.583676  -14.628362  48.006439  85.527743  -8.70502  10.611501  -10.772258  -6.752322  14.719517  71.674902  22.478611  30.350025  -20.332629  -3.019027  -59.307972  79.687699  0.100727  -4.404859  4.125219  2.60717  6.370013  3.066585  1.998732  4.759336  
0.0  89.887642  0.0  8.559175  -23.850843  -93.734344  16.355969  -8.963907  -8.721174  4.271697  12.979479  43.301633  2.678697  -0.116362  0.611959  -11.299131  18.866794  -34.782521  7.442412  0.430931  41.574624  7.487872  1.331468  -0.27504  2.128384  1.062935  0.183382  5.829169  2.886678  0.594701  5.829169  2.886678  0.594701  -8.10029  9.846721  6.912083  136.169322  31.865526  -176.049502  -2.510274  -14.986897  48.773435  85.361949  -8.200271  11.454457  -10.814928  -6.346677  15.499171  70.972038  22.543303  30.287639  -20.727227  -4.96294  -62.573634  79.364744  -0.220316  -5.108996  4.933672  3.090674  6.718828  3.665876  2.372754  5.013319  
0.0  89.887642  0.0  9.056955  -21.782045  -93.549344  15.399532  -7.858889  -9.239421  3.062103  12.80798  43.122876  2.458267  -0.270069  0.883542  -12.929365  19.32497  -34.630644  8.335333  0.413654  41.353368  7.491432  1.395646  -0.380619  1.594153  1.029915  0.135499  4.365631  2.804816  0.438332  4.365631  2.804816  0.438332  -8.134121  10.961624  6.901233  136.075009  32.411306  -176.806128  -3.476172  -15.473028  49.258539  85.368866  -7.449759  12.595087  -10.542344  -5.871026  16.065511  69.218114  22.613216  29.990475  -20.38939  -6.687609  -66.484478  78.810903  -0.377832  -5.859349  5.725568  3.762694  6.969674  4.250324  2.888033  5.190625  
